DesignModeler IGES Output Version 5.3                                   S      1
1H,,1H;,11HCube_Hollow,15HCube_Hollow.igs,27HBy Siemens PLM IncorporatedG      1
,26HXPlus GENERIC/IGES 21.0.47,32,38, 6,308,15,11HCube_Hollow,1.000,6,1HG      2
M,1,1.000,15H20210609.141805,1.0e-08,0.00,7Hzao0017,1H ,11,0,15H20210609G      3
.141805;                                                                G      4
     116       1       0       1       0       0       0       000010001D      1
     116       1       0       1       0       0       0               0D      2
     123       2       0       1       0       0       0       000010201D      3
     123       1       0       1       0       0       0               0D      4
     123       3       0       1       0       0       0       000010201D      5
     123       1       0       1       0       0       0               0D      6
     190       4       0       1       0       0       0       000010001D      7
     190       1       0       1       1       0       0               0D      8
     110       5       0       1       0       0       0       000010001D      9
     110       1       0       1       0       0       0               0D     10
     502       6       0       1       0       0       0       000010001D     11
     502       1       0       4       1       0       0               0D     12
     110      10       0       1       0       0       0       000010001D     13
     110       1       0       1       0       0       0               0D     14
     110      11       0       1       0       0       0       000010001D     15
     110       1       0       1       0       0       0               0D     16
     110      12       0       1       0       0       0       000010001D     17
     110       1       0       1       0       0       0               0D     18
     110      13       0       1       0       0       0       000010001D     19
     110       1       0       1       0       0       0               0D     20
     110      14       0       1       0       0       0       000010001D     21
     110       1       0       1       0       0       0               0D     22
     110      15       0       1       0       0       0       000010001D     23
     110       1       0       1       0       0       0               0D     24
     110      16       0       1       0       0       0       000010001D     25
     110       1       0       1       0       0       0               0D     26
     110      17       0       1       0       0       0       000010001D     27
     110       1       0       1       0       0       0               0D     28
     110      18       0       1       0       0       0       000010001D     29
     110       1       0       1       0       0       0               0D     30
     110      19       0       1       0       0       0       000010001D     31
     110       1       0       1       0       0       0               0D     32
     110      20       0       1       0       0       0       000010001D     33
     110       1       0       1       0       0       0               0D     34
     110      21       0       1       0       0       0       000010001D     35
     110       1       0       1       0       0       0               0D     36
     110      22       0       1       0       0       0       000010001D     37
     110       1       0       1       0       0       0               0D     38
     110      23       0       1       0       0       0       000010001D     39
     110       1       0       1       0       0       0               0D     40
     110      24       0       1       0       0       0       000010001D     41
     110       1       0       1       0       0       0               0D     42
     110      25       0       1       0       0       0       000010001D     43
     110       1       0       1       0       0       0               0D     44
     110      26       0       1       0       0       0       000010001D     45
     110       1       0       1       0       0       0               0D     46
     110      27       0       1       0       0       0       000010001D     47
     110       1       0       1       0       0       0               0D     48
     110      28       0       1       0       0       0       000010001D     49
     110       1       0       1       0       0       0               0D     50
     110      29       0       1       0       0       0       000010001D     51
     110       1       0       1       0       0       0               0D     52
     110      30       0       1       0       0       0       000010001D     53
     110       1       0       1       0       0       0               0D     54
     110      31       0       1       0       0       0       000010001D     55
     110       1       0       1       0       0       0               0D     56
     110      32       0       1       0       0       0       000010001D     57
     110       1       0       1       0       0       0               0D     58
     504      33       0       1       0       0       0       000010001D     59
     504       1       0       6       1       0       0               0D     60
     508      39       0       1       0       0       0       000010001D     61
     508       1       0       1       1       0       0               0D     62
     510      40       0       1       0       0       0       000010001D     63
     510       1       0       1       1       0       0               0D     64
     116      41       0       1       0       0       0       000010001D     65
     116       1       0       1       0       0       0               0D     66
     123      42       0       1       0       0       0       000010201D     67
     123       1       0       1       0       0       0               0D     68
     123      43       0       1       0       0       0       000010201D     69
     123       1       0       1       0       0       0               0D     70
     190      44       0       1       0       0       0       000010001D     71
     190       1       0       1       1       0       0               0D     72
     508      45       0       1       0       0       0       000010001D     73
     508       1       0       1       1       0       0               0D     74
     510      46       0       1       0       0       0       000010001D     75
     510       1       0       1       1       0       0               0D     76
     116      47       0       1       0       0       0       000010001D     77
     116       1       0       1       0       0       0               0D     78
     123      48       0       1       0       0       0       000010201D     79
     123       1       0       1       0       0       0               0D     80
     123      49       0       1       0       0       0       000010201D     81
     123       1       0       1       0       0       0               0D     82
     190      50       0       1       0       0       0       000010001D     83
     190       1       0       1       1       0       0               0D     84
     508      51       0       1       0       0       0       000010001D     85
     508       1       0       1       1       0       0               0D     86
     510      52       0       1       0       0       0       000010001D     87
     510       1       0       1       1       0       0               0D     88
     116      53       0       1       0       0       0       000010001D     89
     116       1       0       1       0       0       0               0D     90
     123      54       0       1       0       0       0       000010201D     91
     123       1       0       1       0       0       0               0D     92
     123      55       0       1       0       0       0       000010201D     93
     123       1       0       1       0       0       0               0D     94
     190      56       0       1       0       0       0       000010001D     95
     190       1       0       1       1       0       0               0D     96
     508      57       0       1       0       0       0       000010001D     97
     508       1       0       1       1       0       0               0D     98
     510      58       0       1       0       0       0       000010001D     99
     510       1       0       1       1       0       0               0D    100
     116      59       0       1       0       0       0       000010001D    101
     116       1       0       1       0       0       0               0D    102
     123      60       0       1       0       0       0       000010201D    103
     123       1       0       1       0       0       0               0D    104
     123      61       0       1       0       0       0       000010201D    105
     123       1       0       1       0       0       0               0D    106
     190      62       0       1       0       0       0       000010001D    107
     190       1       0       1       1       0       0               0D    108
     508      63       0       1       0       0       0       000010001D    109
     508       1       0       1       1       0       0               0D    110
     510      64       0       1       0       0       0       000010001D    111
     510       1       0       1       1       0       0               0D    112
     116      65       0       1       0       0       0       000010001D    113
     116       1       0       1       0       0       0               0D    114
     123      66       0       1       0       0       0       000010201D    115
     123       1       0       1       0       0       0               0D    116
     123      67       0       1       0       0       0       000010201D    117
     123       1       0       1       0       0       0               0D    118
     190      68       0       1       0       0       0       000010001D    119
     190       1       0       1       1       0       0               0D    120
     508      69       0       1       0       0       0       000010001D    121
     508       1       0       1       1       0       0               0D    122
     510      70       0       1       0       0       0       000010001D    123
     510       1       0       1       1       0       0               0D    124
     514      71       0       1       0       0       0       000010001D    125
     514       1       0       1       1       0       0               0D    126
     116      72       0       1       0       0       0       000010001D    127
     116       1       0       1       0       0       0               0D    128
     123      73       0       1       0       0       0       000010201D    129
     123       1       0       1       0       0       0               0D    130
     123      74       0       1       0       0       0       000010201D    131
     123       1       0       1       0       0       0               0D    132
     190      75       0       1       0       0       0       000010001D    133
     190       1       0       1       1       0       0               0D    134
     508      76       0       1       0       0       0       000010001D    135
     508       1       0       1       1       0       0               0D    136
     510      77       0       1       0       0       0       000010001D    137
     510       1       0       1       1       0       0               0D    138
     116      78       0       1       0       0       0       000010001D    139
     116       1       0       1       0       0       0               0D    140
     123      79       0       1       0       0       0       000010201D    141
     123       1       0       1       0       0       0               0D    142
     123      80       0       1       0       0       0       000010201D    143
     123       1       0       1       0       0       0               0D    144
     190      81       0       1       0       0       0       000010001D    145
     190       1       0       1       1       0       0               0D    146
     508      82       0       1       0       0       0       000010001D    147
     508       1       0       1       1       0       0               0D    148
     510      83       0       1       0       0       0       000010001D    149
     510       1       0       1       1       0       0               0D    150
     116      84       0       1       0       0       0       000010001D    151
     116       1       0       1       0       0       0               0D    152
     123      85       0       1       0       0       0       000010201D    153
     123       1       0       1       0       0       0               0D    154
     123      86       0       1       0       0       0       000010201D    155
     123       1       0       1       0       0       0               0D    156
     190      87       0       1       0       0       0       000010001D    157
     190       1       0       1       1       0       0               0D    158
     508      88       0       1       0       0       0       000010001D    159
     508       1       0       1       1       0       0               0D    160
     510      89       0       1       0       0       0       000010001D    161
     510       1       0       1       1       0       0               0D    162
     116      90       0       1       0       0       0       000010001D    163
     116       1       0       1       0       0       0               0D    164
     123      91       0       1       0       0       0       000010201D    165
     123       1       0       1       0       0       0               0D    166
     123      92       0       1       0       0       0       000010201D    167
     123       1       0       1       0       0       0               0D    168
     190      93       0       1       0       0       0       000010001D    169
     190       1       0       1       1       0       0               0D    170
     508      94       0       1       0       0       0       000010001D    171
     508       1       0       1       1       0       0               0D    172
     510      95       0       1       0       0       0       000010001D    173
     510       1       0       1       1       0       0               0D    174
     116      96       0       1       0       0       0       000010001D    175
     116       1       0       1       0       0       0               0D    176
     123      97       0       1       0       0       0       000010201D    177
     123       1       0       1       0       0       0               0D    178
     123      98       0       1       0       0       0       000010201D    179
     123       1       0       1       0       0       0               0D    180
     190      99       0       1       0       0       0       000010001D    181
     190       1       0       1       1       0       0               0D    182
     508     100       0       1       0       0       0       000010001D    183
     508       1       0       1       1       0       0               0D    184
     510     101       0       1       0       0       0       000010001D    185
     510       1       0       1       1       0       0               0D    186
     116     102       0       1       0       0       0       000010001D    187
     116       1       0       1       0       0       0               0D    188
     123     103       0       1       0       0       0       000010201D    189
     123       1       0       1       0       0       0               0D    190
     123     104       0       1       0       0       0       000010201D    191
     123       1       0       1       0       0       0               0D    192
     190     105       0       1       0       0       0       000010001D    193
     190       1       0       1       1       0       0               0D    194
     508     106       0       1       0       0       0       000010001D    195
     508       1       0       1       1       0       0               0D    196
     510     107       0       1       0       0       0       000010001D    197
     510       1       0       1       1       0       0               0D    198
     514     108       0       1       0       0       0       000010001D    199
     514       1       0       1       1       0       0               0D    200
     186     109       0       1       0       0       0       000000001D    201
     186       1       0       1       0       0       0               0D    202
116,0.,0.5,0.;                                                         1P      1
123,-1.,0.,0.;                                                         3P      2
123,0.,0.,1.;                                                          5P      3
190,1,3,5;                                                             7P      4
110,1.,0.,1.,0.,0.,1.;                                                 9P      5
502,16,1.,0.,1.,0.75,0.25,0.75,0.75,0.75,0.75,0.,0.,1.,0.25,          11P      6
0.25,0.25,0.25,0.75,0.75,0.75,0.75,0.25,0.,1.,1.,0.25,0.25,0.75,      11P      7
0.,0.,0.,0.75,0.25,0.25,1.,1.,0.,1.,1.,1.,1.,0.,0.,0.,1.,0.,          11P      8
0.25,0.75,0.25;                                                       11P      9
110,0.,0.,1.,0.,1.,1.;                                                13P     10
110,0.,1.,1.,1.,1.,1.;                                                15P     11
110,1.,1.,1.,1.,0.,1.;                                                17P     12
110,0.,0.,0.,0.,0.,1.;                                                19P     13
110,0.,1.,0.,0.,1.,1.;                                                21P     14
110,1.,1.,0.,1.,1.,1.;                                                23P     15
110,1.,0.,0.,1.,0.,1.;                                                25P     16
110,1.,0.,0.,1.,1.,0.;                                                27P     17
110,1.,1.,0.,0.,1.,0.;                                                29P     18
110,0.,1.,0.,0.,0.,0.;                                                31P     19
110,0.,0.,0.,1.,0.,0.;                                                33P     20
110,0.75,0.25,0.75,0.25,0.25,0.75;                                    35P     21
110,0.25,0.25,0.75,0.25,0.75,0.75;                                    37P     22
110,0.25,0.75,0.75,0.75,0.75,0.75;                                    39P     23
110,0.75,0.75,0.75,0.75,0.25,0.75;                                    41P     24
110,0.25,0.25,0.25,0.25,0.25,0.75;                                    43P     25
110,0.25,0.75,0.25,0.25,0.75,0.75;                                    45P     26
110,0.75,0.75,0.25,0.75,0.75,0.75;                                    47P     27
110,0.75,0.25,0.25,0.75,0.25,0.75;                                    49P     28
110,0.75,0.25,0.25,0.75,0.75,0.25;                                    51P     29
110,0.75,0.75,0.25,0.25,0.75,0.25;                                    53P     30
110,0.25,0.75,0.25,0.25,0.25,0.25;                                    55P     31
110,0.25,0.25,0.25,0.75,0.25,0.25;                                    57P     32
504,24,9,11,1,11,4,13,11,4,11,8,15,11,8,11,13,17,11,13,11,1,19,       59P     33
11,10,11,4,21,11,15,11,8,23,11,12,11,13,25,11,14,11,1,27,11,14,       59P     34
11,12,29,11,12,11,15,31,11,15,11,10,33,11,10,11,14,35,11,2,11,9,      59P     35
37,11,9,11,6,39,11,6,11,3,41,11,3,11,2,43,11,5,11,9,45,11,16,11,      59P     36
6,47,11,7,11,3,49,11,11,11,2,51,11,11,11,7,53,11,7,11,16,55,11,       59P     37
16,11,5,57,11,5,11,11;                                                59P     38
508,4,0,59,5,1,0,0,59,2,1,0,0,59,6,0,0,0,59,11,1,0;                   61P     39
510,7,1,1,61;                                                         63P     40
116,0.5,0.,0.;                                                        65P     41
123,0.,-1.,0.;                                                        67P     42
123,0.,0.,-1.;                                                        69P     43
190,65,67,69;                                                         71P     44
508,4,0,59,8,1,0,0,59,1,1,0,0,59,5,0,0,0,59,12,1,0;                   73P     45
510,71,1,1,73;                                                        75P     46
116,1.,0.5,0.;                                                        77P     47
123,1.,0.,0.;                                                         79P     48
123,0.,0.,-1.;                                                        81P     49
190,77,79,81;                                                         83P     50
508,4,0,59,9,1,0,0,59,7,1,0,0,59,4,1,0,0,59,8,0,0;                    85P     51
510,83,1,1,85;                                                        87P     52
116,0.5,1.,0.;                                                        89P     53
123,0.,1.,0.;                                                         91P     54
123,0.,0.,1.;                                                         93P     55
190,89,91,93;                                                         95P     56
508,4,0,59,6,1,0,0,59,3,1,0,0,59,7,0,0,0,59,10,1,0;                   97P     57
510,95,1,1,97;                                                        99P     58
116,0.5,0.5,0.;                                                      101P     59
123,0.,0.,-1.;                                                       103P     60
123,-1.,0.,0.;                                                       105P     61
190,101,103,105;                                                     107P     62
508,4,0,59,9,0,0,0,59,12,0,0,0,59,11,0,0,0,59,10,0,0;                109P     63
510,107,1,1,109;                                                     111P     64
116,0.5,0.5,1.;                                                      113P     65
123,0.,0.,1.;                                                        115P     66
123,1.,0.,0.;                                                        117P     67
190,113,115,117;                                                     119P     68
508,4,0,59,1,0,0,0,59,4,0,0,0,59,3,0,0,0,59,2,0,0;                   121P     69
510,119,1,1,121;                                                     123P     70
514,6,63,1,75,1,87,1,99,1,111,1,123,1;                               125P     71
116,0.5,0.5,0.75;                                                    127P     72
123,0.,0.,1.;                                                        129P     73
123,1.,0.,0.;                                                        131P     74
190,127,129,131;                                                     133P     75
508,4,0,59,13,1,0,0,59,14,1,0,0,59,15,1,0,0,59,16,1,0;               135P     76
510,133,1,1,135;                                                     137P     77
116,0.5,0.25,0.25;                                                   139P     78
123,0.,-1.,0.;                                                       141P     79
123,0.,0.,-1.;                                                       143P     80
190,139,141,143;                                                     145P     81
508,4,0,59,20,0,0,0,59,24,0,0,0,59,17,1,0,0,59,13,0,0;               147P     82
510,145,1,1,147;                                                     149P     83
116,0.25,0.5,0.25;                                                   151P     84
123,-1.,0.,0.;                                                       153P     85
123,0.,0.,1.;                                                        155P     86
190,151,153,155;                                                     157P     87
508,4,0,59,17,0,0,0,59,23,0,0,0,59,18,1,0,0,59,14,0,0;               159P     88
510,157,1,1,159;                                                     161P     89
116,0.5,0.75,0.25;                                                   163P     90
123,0.,1.,0.;                                                        165P     91
123,0.,0.,1.;                                                        167P     92
190,163,165,167;                                                     169P     93
508,4,0,59,18,0,0,0,59,22,0,0,0,59,19,1,0,0,59,15,0,0;               171P     94
510,169,1,1,171;                                                     173P     95
116,0.75,0.5,0.25;                                                   175P     96
123,1.,0.,0.;                                                        177P     97
123,0.,0.,-1.;                                                       179P     98
190,175,177,179;                                                     181P     99
508,4,0,59,21,0,0,0,59,20,1,0,0,59,16,0,0,0,59,19,0,0;               183P    100
510,181,1,1,183;                                                     185P    101
116,0.5,0.5,0.25;                                                    187P    102
123,0.,0.,-1.;                                                       189P    103
123,-1.,0.,0.;                                                       191P    104
190,187,189,191;                                                     193P    105
508,4,0,59,21,1,0,0,59,22,1,0,0,59,23,1,0,0,59,24,1,0;               195P    106
510,193,1,1,195;                                                     197P    107
514,6,137,0,149,0,161,0,173,0,185,0,197,0;                           199P    108
186,125,1,1,199,1;                                                   201P    109
S      1G      4D    202P    109                                        T      1
