solid Exported from Blender-2.79 (sub 0)
facet normal -0.000000 0.000000 -1.000000
outer loop
vertex 1.000000 1.000000 -1.000000
vertex 1.000000 -1.000000 -1.000000
vertex -1.000000 -1.000000 -1.000000
endloop
endfacet
facet normal 0.000000 0.000000 -1.000000
outer loop
vertex -1.000000 -1.000000 -1.000000
vertex -1.000000 1.000000 -1.000000
vertex 1.000000 1.000000 -1.000000
endloop
endfacet
facet normal 0.000024 -0.894422 0.447223
outer loop
vertex 1.000000 -1.000000 -1.000000
vertex 0.999999 0.000026 1.000000
vertex -1.000000 -0.000027 1.000000
endloop
endfacet
facet normal -0.000000 -0.894432 0.447204
outer loop
vertex -1.000000 -0.000027 1.000000
vertex -1.000000 -1.000000 -1.000000
vertex 1.000000 -1.000000 -1.000000
endloop
endfacet
facet normal 0.000000 0.894432 0.447204
outer loop
vertex 0.999999 0.000026 1.000000
vertex 1.000000 1.000000 -1.000000
vertex -1.000000 1.000000 -1.000000
endloop
endfacet
facet normal -0.000024 0.894422 0.447223
outer loop
vertex -1.000000 1.000000 -1.000000
vertex -1.000000 -0.000027 1.000000
vertex 0.999999 0.000026 1.000000
endloop
endfacet
endsolid Exported from Blender-2.79 (sub 0)
